<?xml version="1.0" encoding="UTF-8"?>
<svg version="1.1" xmlns="http://www.w3.org/2000/svg" width="1171" height="728">
<path d="M0 0 C10.68725973 -0.13589898 21.00426753 0.23063294 31.55273438 2.01806641 C33.59727102 2.36154655 35.64536774 2.6681931 37.69604492 2.97265625 C39.03036375 3.18541293 40.36436494 3.40017395 41.69799805 3.6171875 C42.86081299 3.80571289 44.02362793 3.99423828 45.22167969 4.18847656 C50.93887215 5.79291115 54.86055977 9.14933961 58.7253418 13.5390625 C59.72307617 14.65087891 59.72307617 14.65087891 60.7409668 15.78515625 C64.80343401 21.21092891 65.24955402 26.52578598 64.4753418 33.1015625 C62.56319818 40.26247616 57.49275809 44.18176667 51.4753418 48.1015625 C48.69198119 49.6467423 46.28790959 50.45958756 43.1472168 50.953125 C42.34799805 51.08203125 41.5487793 51.2109375 40.7253418 51.34375 C39.9003418 51.47007812 39.0753418 51.59640625 38.2253418 51.7265625 C37.38487305 51.860625 36.5444043 51.9946875 35.6784668 52.1328125 C33.61168679 52.46161841 31.54363019 52.78238219 29.4753418 53.1015625 C29.4753418 53.7615625 29.4753418 54.4215625 29.4753418 55.1015625 C30.15854492 55.29492188 30.84174805 55.48828125 31.5456543 55.6875 C35.60137415 57.64506078 38.24675192 60.51138382 41.3503418 63.7265625 C41.97312012 64.36247314 42.59589844 64.99838379 43.23754883 65.65356445 C56.50460354 79.27707345 66.75423206 94.68818143 76.97460938 110.67236328 C80.2128477 115.72470774 83.54019217 120.71455239 86.88061523 125.69970703 C89.33376791 129.36794587 91.74205977 133.05868911 94.1003418 136.7890625 C99.71368106 145.65499087 105.52182149 154.29389376 111.86987305 162.65234375 C115.0556377 166.85113392 118.16768803 171.10393329 121.2878418 175.3515625 C126.22563215 182.06741039 131.19353859 188.75892799 136.21679688 195.41113281 C140.37160267 200.92471929 144.42505123 206.51091292 148.4753418 212.1015625 C148.46281372 211.49229416 148.45028564 210.88302582 148.43737793 210.2552948 C148.30529489 203.81306427 148.17595912 197.37078243 148.0480957 190.9284668 C148.00027284 188.53620051 147.95178984 186.14394731 147.90258789 183.75170898 C147.43845456 161.14652158 147.43845456 161.14652158 147.5065918 149.85546875 C147.54628944 141.81130764 147.11093427 133.87377021 146.4753418 125.8515625 C145.69663841 115.89678672 145.3483545 106.08064781 145.4753418 96.1015625 C144.84611816 95.91263428 144.21689453 95.72370605 143.56860352 95.52905273 C134.9716503 92.90341492 128.89285657 88.90131884 124.27612305 81.06640625 C120.66801213 73.88816452 120.39345341 67.1676346 122.6003418 59.4765625 C125.34476268 52.28516334 129.56598296 46.61111459 136.58227539 43.20581055 C139.9718892 41.91203643 143.23953849 41.26490887 146.8112793 40.625 C147.51158264 40.49879776 148.21188599 40.37259552 148.93341064 40.24256897 C151.11264746 39.85360249 153.29348134 39.47551197 155.4753418 39.1015625 C156.13636902 38.98781281 156.79739624 38.87406311 157.47845459 38.75686646 C177.08011259 35.41364921 196.59069062 32.97011775 216.4753418 32.1015625 C217.75828125 32.04162109 217.75828125 32.04162109 219.06713867 31.98046875 C233.64689494 31.37750116 250.77615992 32.35224427 262.4753418 42.1015625 C268.97431852 51.01253058 271.00348802 57.13895985 270.4753418 68.1015625 C269.24804467 75.46534524 265.02998842 81.01088602 259.5378418 85.9140625 C243.62065739 97.28347993 220.53199 95.86064544 201.9753418 96.2890625 C198.21058353 96.38990854 194.44602165 96.49559461 190.68151855 96.60554504 C188.35901672 96.67194132 186.0363329 96.7323142 183.71350098 96.78593445 C182.15411804 96.82651726 182.15411804 96.82651726 180.56323242 96.86791992 C179.65013306 96.88916428 178.73703369 96.91040863 177.79626465 96.93229675 C174.66382061 97.16074703 172.94322732 97.58315413 170.8112793 99.9453125 C168.76190887 104.78709995 169.03628708 109.3947754 169.1003418 114.6015625 C169.10831787 115.80135742 169.11629395 117.00115234 169.12451172 118.23730469 C169.79042287 163.60917493 173.5190466 210.58904431 182.4753418 255.1015625 C182.67885254 256.15037598 182.88236328 257.19918945 183.09204102 258.27978516 C183.80033563 261.89223765 184.54057188 265.49698488 185.2878418 269.1015625 C185.51197754 270.24842529 185.73611328 271.39528809 185.96704102 272.5769043 C187.5387083 279.90902719 189.87321349 285.19403421 194.4753418 291.1015625 C198.98715576 297.49329895 201.53033386 303.14116784 200.4753418 311.1015625 C198.59789791 319.73276426 194.87202574 325.24190542 187.4753418 330.1015625 C180.61437401 333.59699531 173.465785 334.28391604 166.1003418 332.1015625 C155.20042303 326.61384358 148.35663766 318.83759886 141.4753418 309.1015625 C140.9494043 308.39386719 140.4234668 307.68617188 139.8815918 306.95703125 C137.5483088 303.80567647 135.58322679 300.53287631 133.65307617 297.12646484 C131.42901862 293.30259807 129.03569613 289.5842101 126.6628418 285.8515625 C126.16719727 285.06910156 125.67155273 284.28664063 125.16088867 283.48046875 C124.13646459 281.8640673 123.11054923 280.24861013 122.08325195 278.6340332 C120.98462115 276.90368135 119.89075471 275.17029771 118.80102539 273.43432617 C114.61972486 266.79729432 110.231427 260.33413486 105.7253418 253.9140625 C104.32410051 251.90638931 102.92305999 249.89857598 101.5222168 247.890625 C99.57238954 245.10029147 97.62173611 242.31055027 95.66870117 239.52246094 C94.10005288 237.28088262 92.53702889 235.03549335 90.9753418 232.7890625 C90.51289063 232.13204346 90.05043945 231.47502441 89.57397461 230.7980957 C86.4753418 226.329192 86.4753418 226.329192 86.4753418 224.1015625 C85.8153418 224.1015625 85.1553418 224.1015625 84.4753418 224.1015625 C83.0300293 222.08203125 83.0300293 222.08203125 81.3503418 219.2890625 C78.92081433 215.35673454 76.41561439 211.56473445 73.6628418 207.8515625 C63.78526562 194.3616156 55.41364546 180.21930705 47.2097168 165.67578125 C44.05746321 160.09292308 40.80429534 154.58045787 37.4753418 149.1015625 C37.40727564 157.57196446 37.57782486 165.99110096 38.02612305 174.44921875 C38.11390518 176.1767186 38.11390518 176.1767186 38.20346069 177.93911743 C38.39475724 181.68095536 38.59110304 185.42250708 38.7878418 189.1640625 C38.92246867 191.76863062 39.05698876 194.37320427 39.19140625 196.9777832 C40.50999038 222.35855639 41.96929856 247.73127145 43.4753418 273.1015625 C44.09301926 273.15298401 44.71069672 273.20440552 45.34709167 273.25738525 C48.19626938 273.49740497 51.04476735 273.74475555 53.89331055 273.9921875 C54.86457886 274.07291504 55.83584717 274.15364258 56.83654785 274.23681641 C69.16042938 275.31989451 81.79928965 276.72003888 91.4753418 285.1015625 C92.8675293 286.24625 92.8675293 286.24625 94.2878418 287.4140625 C99.16977093 293.41186115 101.5956338 300.36277716 101.4753418 308.1015625 C100.40548978 318.02649736 95.6927568 323.23293219 88.1081543 329.3671875 C82.39406362 333.13136593 76.86001346 333.44469029 70.2253418 333.6640625 C64.68073865 333.61957366 64.68073865 333.61957366 59.4753418 335.1015625 C57.1423552 335.14178641 54.80827514 335.14476497 52.4753418 335.1015625 C52.44956055 335.77960938 52.4237793 336.45765625 52.3972168 337.15625 C51.8564453 346.02981863 49.9670556 354.60984869 43.4753418 361.1015625 C36.49722056 366.41100257 30.1050194 367.95489585 21.4753418 367.1015625 C16.06800299 365.51665285 12.64228953 362.75161775 8.6628418 358.91796875 C3.59792926 354.71228245 -2.07922167 352.33348558 -8.2121582 350.1640625 C-13.10187021 348.41669468 -17.73468154 346.52326649 -22.3996582 344.2265625 C-28.68335215 341.58875515 -34.58847946 341.78051192 -41.2512207 341.984375 C-47.51774166 342.17190789 -53.7615234 341.95527995 -60.0246582 341.7265625 C-61.65298584 341.67967285 -61.65298584 341.67967285 -63.31420898 341.63183594 C-74.54701325 341.22123735 -83.6019811 340.40400815 -91.7121582 331.9765625 C-96.19655131 326.44187733 -97.88698354 320.10989643 -97.5246582 313.0390625 C-96.18621404 304.13004352 -91.44103802 298.51284421 -84.8059082 292.73046875 C-80.9071721 289.94661095 -76.9795376 288.86338808 -72.28222656 288.171875 C-70.74924171 287.94153564 -70.74924171 287.94153564 -69.18528748 287.70654297 C-68.08942825 287.54814941 -66.99356903 287.38975586 -65.86450195 287.2265625 C-64.72364639 287.05656738 -63.58279083 286.88657227 -62.40736389 286.71142578 C-58.75978672 286.1690541 -55.11104564 285.63504106 -51.4621582 285.1015625 C-47.83854134 284.56634055 -44.21518494 284.02939374 -40.5919342 283.49169922 C-38.34044374 283.15816996 -36.08869875 282.82635248 -33.83665466 282.49658203 C-26.71759561 281.44951112 -19.61820986 280.30933855 -12.5246582 279.1015625 C-12.89580147 270.70335607 -13.26948659 262.30526803 -13.64630032 253.9073143 C-13.82124572 250.00662188 -13.99535834 246.10589622 -14.16748047 242.20507812 C-14.33402801 238.43132632 -14.50287704 234.65768352 -14.67323494 230.88410187 C-14.73741479 229.45385545 -14.80080459 228.02357333 -14.86334038 226.59325409 C-15.14896604 220.07101236 -15.45548178 213.56456465 -16.07177734 207.06347656 C-16.56032123 201.53892328 -16.5484176 196.07859728 -16.51055908 190.53570557 C-16.49598781 180.86556339 -16.97814342 171.1933362 -17.3293457 161.53125 C-17.41429295 159.15919192 -17.49918156 156.78713174 -17.58401489 154.41506958 C-17.76195174 149.46120929 -17.94219003 144.50743862 -18.1237793 139.55371094 C-18.35392551 133.26423049 -18.575897 126.97449083 -18.79578972 120.6846447 C-18.96830269 115.78885288 -19.1464968 110.89327909 -19.32617569 105.99774551 C-19.41028782 103.68182672 -19.492433 101.36583548 -19.5724144 99.04977036 C-20.0717598 84.66742848 -20.97901284 70.41084363 -22.5246582 56.1015625 C-23.70772301 56.03461937 -23.70772301 56.03461937 -24.91468811 55.96632385 C-40.81023371 55.05298892 -56.18712869 53.53438965 -71.63330078 49.55883789 C-73.54064634 49.05366964 -73.54064634 49.05366964 -75.6027832 48.8828125 C-81.9410465 48.0620302 -84.90968101 45.38274196 -88.86450195 40.4765625 C-92.17046159 35.74709554 -94.16049255 30.92821295 -94.5246582 25.1015625 C-92.69825477 16.57834646 -89.51512786 11.15690215 -82.5246582 6.1015625 C-73.76841592 0.88507773 -64.90905546 0.77970238 -54.98950195 0.6875 C-53.67921524 0.66813385 -52.36892853 0.6487677 -51.01893616 0.6288147 C-47.53773951 0.57768239 -44.0565019 0.53805372 -40.57513428 0.50067139 C-37.11484128 0.46118972 -33.65473194 0.40951381 -30.19458008 0.359375 C-23.5262167 0.26484737 -16.85790532 0.19653569 -10.18911743 0.13818359 C-6.79244008 0.1042386 -3.39640577 0.0540262 0 0 Z " fill="#F5E5DA" transform="translate(187.524658203125,150.8984375)"/>
<path d="M0 0 C8.89177981 -0.30194568 15.82283039 0.85181253 22.6484375 6.82421875 C25.63439761 11.86302644 27.36867662 16.71711782 26.15234375 22.59765625 C23.42469548 29.70166462 18.30353668 34.3410924 11.61328125 37.7421875 C6.6053983 39.78241142 1.31687422 40.642376 -3.9765625 41.63671875 C-5.08322266 41.84989746 -6.18988281 42.06307617 -7.33007812 42.28271484 C-9.59480601 42.7183144 -11.86010701 43.15094501 -14.12597656 43.58056641 C-17.01574959 44.1348114 -19.8989859 44.71286117 -22.78125 45.3046875 C-37.30921535 48.25076312 -52.49357218 51.19921875 -67.3515625 51.19921875 C-67.428302 52.58524292 -67.428302 52.58524292 -67.5065918 53.99926758 C-68.03094071 62.69992333 -68.94874837 71.25171548 -70.1640625 79.88671875 C-74.56695817 112.73269579 -76.78056873 145.78302921 -78.93019485 178.83864212 C-79.0978979 181.39339299 -79.27006124 183.94780444 -79.443573 186.50216675 C-80.71022152 205.25183556 -81.56721683 223.95045665 -81.6171875 242.74609375 C-81.62198875 243.57196236 -81.62679001 244.39783096 -81.63173676 245.24872589 C-81.68899791 258.46593578 -81.0004651 271.36554251 -77.2890625 284.13671875 C-73.5368895 298.02613016 -71.99286646 313.38084499 -79.3515625 326.19921875 C-80.0115625 326.19921875 -80.6715625 326.19921875 -81.3515625 326.19921875 C-81.3721875 326.77671875 -81.3928125 327.35421875 -81.4140625 327.94921875 C-82.61796522 330.83858527 -84.3271447 331.95365246 -87.06640625 333.37109375 C-93.98543135 335.87850114 -101.4785766 336.01601527 -108.31640625 333.2734375 C-114.67253681 329.91847415 -118.01916093 326.0226107 -120.3515625 319.19921875 C-121.16707283 316.138028 -121.81568455 313.04689826 -122.4765625 309.94921875 C-126.92872302 290.38790833 -134.01678148 271.67948463 -141.4597168 253.08813477 C-144.36375771 245.81335 -147.07091232 238.52347254 -149.42651367 231.05249023 C-150.57270716 227.43000387 -151.85351971 223.9231815 -153.3046875 220.41015625 C-155.48854154 215.02198436 -157.12384644 209.55124355 -158.6640625 203.94921875 C-158.96038574 202.8720459 -159.25670898 201.79487305 -159.56201172 200.68505859 C-174.3515625 146.15005189 -174.3515625 146.15005189 -174.3515625 121.19921875 C-175.0115625 121.19921875 -175.6715625 121.19921875 -176.3515625 121.19921875 C-176.44695312 122.24078125 -176.54234375 123.28234375 -176.640625 124.35546875 C-177.42229777 130.5978801 -179.14522104 136.62135662 -180.7265625 142.69921875 C-183.04554182 151.76303785 -185.20627757 160.77143726 -186.74609375 170 C-187.40435091 173.47814592 -188.37340963 176.79825645 -189.3515625 180.19921875 C-196.93954594 214.32528042 -205.17460264 276.57915749 -191.3515625 309.19921875 C-190.90720061 316.71918912 -192.69298124 323.26251392 -197.3515625 329.19921875 C-203.83835606 335.25652141 -210.39742779 336.66348375 -219.12109375 336.515625 C-224.93298353 335.94638307 -228.50300007 333.61788294 -233.0390625 330.13671875 C-238.78482572 322.83804656 -241.20790391 314.2848847 -242.5234375 305.2265625 C-242.68422791 304.16751205 -242.84501831 303.10846161 -243.01068115 302.01731873 C-245.06704834 287.4532883 -245.73350741 272.76206936 -246.48046875 258.08520508 C-246.64166198 254.99230993 -246.8179265 251.90035021 -246.99418354 248.80828285 C-247.92314883 232.43037246 -248.55832785 216.12123935 -248.38256836 199.71069336 C-248.12742654 174.10269102 -250.77675749 148.19979702 -254.15356445 122.83642578 C-255.68742268 111.09502362 -256.77408926 99.30466829 -257.90600586 87.51904297 C-258.7420895 78.87744993 -259.67447855 70.27461662 -260.88452148 61.67602539 C-261.44228484 57.52385185 -261.90405423 53.36449934 -262.3515625 49.19921875 C-263.63732178 49.23998535 -264.92308105 49.28075195 -266.24780273 49.32275391 C-271.05024312 49.47201492 -275.85300827 49.60634377 -280.65600586 49.73632812 C-282.72871396 49.79447314 -284.80131494 49.85658519 -286.8737793 49.92285156 C-289.86487297 50.01778409 -292.85607043 50.09810938 -295.84765625 50.17578125 C-297.22164833 50.22407578 -297.22164833 50.22407578 -298.62339783 50.27334595 C-306.94564771 50.46406229 -314.83049849 49.83104676 -321.3515625 44.19921875 C-325.54734474 39.70373778 -326.69799435 35.69600366 -326.8515625 29.57421875 C-326.57125674 23.0135489 -325.29278111 19.33455922 -320.8515625 14.44921875 C-314.13651089 8.4056723 -306.27077026 7.91197921 -297.62890625 7.1640625 C-296.72459366 7.08047989 -295.82028107 6.99689728 -294.88856506 6.91078186 C-292.02256363 6.6468933 -289.15589419 6.39141411 -286.2890625 6.13671875 C-283.4188269 5.87688486 -280.54876602 5.6152649 -277.67884827 5.35194397 C-275.90044847 5.18928176 -274.12184131 5.02886533 -272.34300232 4.87107849 C-268.79043591 4.55027818 -265.27948009 4.18856882 -261.74926758 3.66699219 C-257.96515925 3.14602132 -254.21123031 2.93861511 -250.3984375 2.8125 C-249.2871347 2.77421333 -249.2871347 2.77421333 -248.15338135 2.7351532 C-246.59369953 2.68345155 -245.03394196 2.63399106 -243.47412109 2.58666992 C-241.12153189 2.5123496 -238.76995052 2.42141005 -236.41796875 2.33007812 C-213.70937237 1.55924399 -213.70937237 1.55924399 -206.3515625 8.19921875 C-202.48183711 13.18912781 -201.65180516 17.24885316 -201.90234375 23.546875 C-202.82843163 29.01481997 -205.84285312 31.94196093 -209.9765625 35.38671875 C-214.58855235 37.86352811 -219.39511894 39.54119137 -224.3515625 41.19921875 C-223.08634895 50.41554495 -221.30063596 59.50265609 -219.03344727 68.52368164 C-215.06532294 84.32895788 -212.10328483 100.18471137 -209.4765625 116.26171875 C-209.07112846 118.70130762 -208.66488171 121.14076157 -208.2578125 123.58007812 C-207.27974537 129.45161229 -206.31150374 135.32469536 -205.3515625 141.19921875 C-202.92589233 134.86572997 -202.92589233 134.86572997 -200.9921875 128.37109375 C-200.76692383 127.50291016 -200.54166016 126.63472656 -200.30957031 125.74023438 C-200.07592773 124.81919922 -199.84228516 123.89816406 -199.6015625 122.94921875 C-199.34987305 121.96630859 -199.09818359 120.98339844 -198.83886719 119.97070312 C-198.29548548 117.84361919 -197.75421891 115.71599404 -197.21484375 113.58789062 C-196.31455855 110.05396571 -195.39616896 106.52503623 -194.4765625 102.99609375 C-190.77338495 88.66328317 -187.83170967 74.99836498 -186.9140625 60.19921875 C-186.3859267 53.12566222 -185.26729162 48.66464989 -179.7890625 43.82421875 C-174.29417757 39.4046769 -169.27703336 39.57690429 -162.3515625 40.19921875 C-155.79277044 42.18963828 -151.31772588 47.63903647 -148.11328125 53.44140625 C-143.09614141 64.45623444 -140.445066 76.54297234 -137.3515625 88.19921875 C-137.13000488 89.02357422 -136.90844727 89.84792969 -136.68017578 90.69726562 C-133.28086345 103.41797995 -130.58119516 116.29061134 -127.82409668 129.16159058 C-124.13625817 157.40374812 -124.13625817 157.40374812 -113.3515625 182.19921875 C-112.8884647 179.24156744 -112.4311159 176.28318657 -111.9765625 173.32421875 C-111.85023438 172.52113281 -111.72390625 171.71804688 -111.59375 170.890625 C-110.83638462 165.92988174 -110.20782534 160.97004083 -109.68414307 155.9801178 C-108.58549504 145.54162791 -107.01036391 135.22837503 -105.2265625 124.88671875 C-105.00428986 123.58050064 -105.00428986 123.58050064 -104.77752686 122.24789429 C-102.27098069 107.56557793 -99.30812793 93.0108391 -95.92919922 78.50463867 C-93.90627641 69.69208532 -92.68656289 61.26662224 -92.3515625 52.19921875 C-93.28097656 52.05871094 -94.21039062 51.91820312 -95.16796875 51.7734375 C-101.65213726 50.60390036 -106.9896056 47.06786761 -111.3515625 42.19921875 C-114.39945933 37.11223601 -115.57427745 31.01697535 -114.3515625 25.19921875 C-111.32456446 18.92324281 -107.2109232 14.40456772 -101.1640625 10.94921875 C-98.55982743 10.25475606 -96.96681913 10.17488317 -94.32421875 10.265625 C-86.16445916 10.32314522 -78.07705411 9.26818747 -69.9765625 8.38671875 C-69.12940674 8.29618225 -68.28225098 8.20564575 -67.40942383 8.11236572 C-55.66288449 6.85571394 -43.96702874 5.43989017 -32.30810547 3.51953125 C-21.54813102 1.75797816 -10.87739314 0.64655833 0 0 Z " fill="#F4E4D9" transform="translate(862.3515625,170.80078125)"/>
<path d="M0 0 C1.1034375 -0.00515625 2.206875 -0.0103125 3.34375 -0.015625 C7.8340192 0.36226894 10.57597264 1.58771429 14.23046875 4.20703125 C18.2997268 6.74970982 22.18737286 7.80041341 26.8125 8.9375 C27.61623047 9.14955078 28.41996094 9.36160156 29.24804688 9.58007812 C50.82690658 15.08329496 81.44952307 14.6818892 101.8125 5 C106.04581548 3.07089421 110.15512942 2.81844859 114.75 2.75 C115.42458252 2.73163086 116.09916504 2.71326172 116.79418945 2.69433594 C121.81952051 2.75656914 124.59100846 4.20154904 128.5 7.25 C130.0778125 8.425625 130.0778125 8.425625 131.6875 9.625 C137.85819734 15.38431752 138.56695813 22.42576681 139.04589844 30.4675293 C139.47721608 43.25396733 135.16482567 52.99207045 129.5 64.25 C129.15751221 64.96881348 128.81502441 65.68762695 128.4621582 66.42822266 C125.29798632 73.01575839 121.02692919 78.52974764 116.5 84.25 C115.57960938 85.42369141 115.57960938 85.42369141 114.640625 86.62109375 C109.97205233 92.28548581 105.64061982 96.7084606 98.125 97.69140625 C89.10262385 97.98769191 84.61064798 96.78706919 77.8125 90.9375 C72.39618775 84.64286685 70.88750784 80.60949039 71.16796875 72.3203125 C71.85378834 65.97849844 73.97273661 60.08214629 76.5 54.25 C75.51 54.745 75.51 54.745 74.5 55.25 C58.10544133 57.93274596 38.58707961 57.48740994 22.5 53.25 C22.56566162 53.90339355 22.63132324 54.55678711 22.69897461 55.22998047 C23.37709813 62.27524173 23.79801399 69.30285051 24.0625 76.375 C24.1049585 77.48214355 24.14741699 78.58928711 24.19116211 79.72998047 C24.60666051 91.56959496 24.5998614 103.40490113 24.5 115.25 C25.31227051 115.21970703 26.12454102 115.18941406 26.96142578 115.15820312 C42.30352943 114.59913558 57.64768827 114.13034801 73 114 C74.23766113 113.97873047 75.47532227 113.95746094 76.75048828 113.93554688 C85.0421608 113.90343972 90.80214123 114.68994393 97.75 119.5 C103.43618423 125.18618423 105.91934199 131.28337213 106.5 139.25 C106.17746794 146.96926719 104.11816736 152.86739522 98.5 158.25 C93.16518021 162.88314136 87.8741471 164.63247466 80.91796875 165.31640625 C80.18343475 165.39551743 79.44890076 165.4746286 78.69210815 165.55613708 C69.52050481 166.5112247 60.32206853 167.16048831 51.125 167.8125 C47.65874368 168.0622885 44.19263736 168.31411361 40.7265625 168.56640625 C39.91213684 168.62535065 39.09771118 168.68429504 38.25860596 168.74502563 C32.33239368 169.17781322 26.41385657 169.67039158 20.5 170.25 C20.33918945 171.20028076 20.17837891 172.15056152 20.01269531 173.12963867 C17.00735112 190.86903592 13.98545949 208.59717284 10.5 226.25 C11.16 225.92 11.82 225.59 12.5 225.25 C15.06464087 224.88450028 17.6118156 224.57766776 20.1875 224.3125 C21.00911621 224.22677734 21.83073242 224.14105469 22.67724609 224.05273438 C31.97964568 223.13140508 41.30578987 222.58134211 50.63427734 222.00024414 C59.1976722 221.466448 67.7573195 220.90360178 76.3125 220.25 C77.30072754 220.17910156 78.28895508 220.10820312 79.30712891 220.03515625 C88.77879379 219.29189705 97.2154584 217.94147986 105.6875 213.5 C106.37730957 213.14510498 107.06711914 212.79020996 107.77783203 212.42456055 C114.38230173 208.93708029 120.03666016 205.68920433 122.5 198.25 C122.80000636 196.47565759 123.03417183 194.68926097 123.2109375 192.8984375 C123.32179688 191.88136719 123.43265625 190.86429688 123.546875 189.81640625 C123.76315945 187.71278247 123.97422164 185.60861425 124.1796875 183.50390625 C124.95607348 176.4899647 126.12321594 169.53898201 129.5 163.25 C130.49 162.92 131.48 162.59 132.5 162.25 C132.5 161.59 132.5 160.93 132.5 160.25 C134.14453125 158.99609375 134.14453125 158.99609375 136.3125 157.6875 C137.02019531 157.25308594 137.72789062 156.81867188 138.45703125 156.37109375 C144.56808834 153.01760736 152.12299061 153.58835905 158.8515625 154.60546875 C165.65083611 156.62357984 170.03495012 162.29272929 173.66796875 168.125 C176.69723197 174.72395837 176.54049587 183.64751461 174.96484375 190.6171875 C174.27862398 194.50384404 174.57649594 198.26100203 174.8125 202.1875 C174.86245117 203.02998291 174.91240234 203.87246582 174.96386719 204.74047852 C175.98310727 220.62464163 179.23234393 232.89257904 187.10546875 246.78515625 C187.9355993 248.25241781 188.74028058 249.73530978 189.48828125 251.24609375 C191.307839 254.84513088 193.36891639 257.11277641 196.4375 259.625 C201.83614267 264.19618716 205.06089595 268.53028206 205.90625 275.69140625 C206.16916744 286.0218706 204.35651225 291.87004306 197.3125 299.45703125 C192.00136517 304.71093402 186.79111903 306.49172362 179.5 307.25 C170.81203776 306.93971563 162.67896652 303.32133358 156.5 297.25 C154.15625 294.26953125 154.15625 294.26953125 152 291.0625 C151.61545654 290.49225098 151.23091309 289.92200195 150.8347168 289.33447266 C144.39633735 279.70721601 138.62174563 269.63844633 133.5 259.25 C132.47519531 259.66765625 132.47519531 259.66765625 131.4296875 260.09375 C128.1820448 261.37548632 124.91122948 262.57069664 121.625 263.75 C120.45195313 264.1728125 119.27890625 264.595625 118.0703125 265.03125 C104.62300812 269.6215771 92.00168268 270.58859786 77.9375 270.8125 C76.14296591 270.84800481 74.34845081 270.8844817 72.55395508 270.921875 C68.79710524 270.9991255 65.04021092 271.07197462 61.28320312 271.14111328 C52.66194659 271.30112433 44.04138894 271.49075001 35.42092896 271.68869019 C32.75065264 271.74858351 30.08030806 271.80340811 27.40991211 271.85766602 C10.46648426 271.32905506 10.46648426 271.32905506 -5 276.6875 C-5.9590625 277.30496094 -6.918125 277.92242187 -7.90625 278.55859375 C-8.7621875 279.11675781 -9.618125 279.67492187 -10.5 280.25 C-15.71526446 283.4353711 -21.59940497 282.91642014 -27.5 282.25 C-34.24841824 279.95266613 -41.80304159 274.51710543 -45.640625 268.4453125 C-52.02749833 252.12975426 -46.4573268 232.80538447 -41.0625 217 C-36.12345755 202.43746246 -33.04093632 187.19608644 -29.5 172.25 C-30.40878906 172.73597656 -31.31757812 173.22195313 -32.25390625 173.72265625 C-36.77165724 175.84833692 -40.73547726 176.1920686 -45.42578125 174.59375 C-51.30394507 171.6735487 -53.23338608 167.31653896 -55.6875 161.375 C-57.96156022 152.62861455 -57.75572005 146.45322639 -53.5 138.25 C-47.79056349 129.26371898 -38.50905069 124.15511491 -28.41015625 121.41015625 C-26.71237503 121.07644602 -25.00645515 120.77945374 -23.29296875 120.5390625 C-21.48133433 120.42651636 -21.48133433 120.42651636 -20.5 119.25 C-19.17710871 108.06849334 -19.31373203 96.71427458 -19.31469727 85.47314453 C-19.31251922 82.64990958 -19.29431001 79.82707218 -19.27539062 77.00390625 C-19.23659755 64.30987449 -20.06508016 51.8586541 -21.5 39.25 C-21.6834199 37.62424912 -21.86629766 35.99843697 -22.04858398 34.37255859 C-22.12874252 33.66650482 -22.20890106 32.96045105 -22.29148865 32.23300171 C-23.16705977 23.90607366 -23.73902761 16.30006174 -18.9921875 9.0859375 C-13.77623631 2.66840594 -8.28747899 -0.03872654 0 0 Z " fill="#F5E4DA" transform="translate(914.5,192.75)"/>
<path d="M0 0 C1.377323 0.00628418 1.377323 0.00628418 2.7824707 0.01269531 C14.0673609 0.19617359 25.22384334 1.57575687 35.61328125 6.21484375 C38.69118624 7.55993131 41.827704 8.64644229 45 9.75 C82.27818874 22.98295012 82.27818874 22.98295012 88.4296875 33.5546875 C88.65914062 34.13476562 88.88859375 34.71484375 89.125 35.3125 C89.785 35.3125 90.445 35.3125 91.125 35.3125 C98.00570509 44.25136321 102.8670315 55.99873851 103.125 67.3125 C103.16367187 68.28960937 103.20234375 69.26671875 103.2421875 70.2734375 C103.62314564 88.43244202 100.72462917 105.08188043 95.125 122.3125 C94.85526367 123.16908203 94.58552734 124.02566406 94.30761719 124.90820312 C89.16960516 141.14062915 82.70595484 156.57103193 71.125 169.3125 C70.62097656 169.91964844 70.11695313 170.52679688 69.59765625 171.15234375 C65.86339049 175.34270303 61.44704622 178.17287986 56.6875 181.0625 C56.06673584 181.43963135 55.44597168 181.8167627 54.80639648 182.20532227 C40.71896387 190.4504998 23.55658237 191.76649474 7.82177734 187.7253418 C1.0325565 185.78709421 -5.60724848 183.59560794 -11.875 180.3125 C-12.70644531 179.90644531 -13.53789062 179.50039063 -14.39453125 179.08203125 C-34.74779734 168.68701552 -49.30592434 152.45368546 -57.875 131.3125 C-59.19361355 127.01227918 -60.14394452 122.74716712 -60.875 118.3125 C-61.05804688 117.34957031 -61.24109375 116.38664062 -61.4296875 115.39453125 C-63.86640941 98.52985067 -61.11988936 79.65618333 -56.875 63.3125 C-56.67922363 62.55855957 -56.48344727 61.80461914 -56.28173828 61.02783203 C-51.60023497 43.37677879 -45.05051293 28.80064282 -33.17089844 14.8515625 C-32.29464909 13.81089259 -31.43879219 12.75276135 -30.60253906 11.6796875 C-28.02397411 8.40480967 -25.7755426 6.32361572 -22 4.5625 C-21.19820313 4.17578125 -20.39640625 3.7890625 -19.5703125 3.390625 C-12.91699161 0.72929665 -7.08564195 -0.04429748 0 0 Z M-2.875 43.3125 C-3.5255237 46.95751224 -4.16954906 50.603645 -4.8125 54.25 C-4.99490234 55.27158203 -5.17730469 56.29316406 -5.36523438 57.34570312 C-7.13250135 67.40305884 -8.13027848 77.00241793 -7.91650391 87.22753906 C-7.88723038 88.69810305 -7.86691436 90.16885867 -7.85302734 91.63964844 C-7.71272735 103.553258 -7.11455694 112.81105163 1.25 122 C8.36703102 128.571963 16.44846909 133.41146335 26.0625 134.9375 C29.53774923 134.78640221 31.11415494 133.88434763 33.5 131.375 C45.22732987 116.13215477 53.40919006 98.57859447 55.125 79.3125 C55.27710938 78.23742187 55.42921875 77.16234375 55.5859375 76.0546875 C55.87649118 72.85859699 55.94893382 70.41629615 55.125 67.3125 C52.24500812 64.33940494 48.88308286 62.94837136 45.125 61.3125 C43.10263562 60.25291711 41.08181222 59.19038809 39.0625 58.125 C34.96358252 56.03817385 30.86633253 54.51661147 26.50463867 53.10473633 C22.55467995 51.78970441 18.68794212 50.26818078 14.8125 48.75 C14.02810547 48.44642578 13.24371094 48.14285156 12.43554688 47.83007812 C6.44270585 45.49302288 6.44270585 45.49302288 4.18676758 44.21118164 C1.71033647 43.13175678 -0.2014892 43.16397162 -2.875 43.3125 Z " fill="#F5E4DA" transform="translate(483.875,286.6875)"/>
<path d="M0 0 C5.94 0.99 5.94 0.99 12 2 C11.67 11.57 11.34 21.14 11 31 C10.67 31 10.34 31 10 31 C9.05757182 21.96278689 8.88842849 13.07448253 9 4 C6.03 3.01 3.06 2.02 0 1 C0 0.67 0 0.34 0 0 Z " fill="#A29790" transform="translate(324,243)"/>
<path d="M0 0 C0.66 0.33 1.32 0.66 2 1 C1.154375 1.515625 0.30875 2.03125 -0.5625 2.5625 C-3.99825935 4.82308275 -6.68855484 7.61205429 -9.484375 10.609375 C-11 12 -11 12 -13 12 C-13 12.99 -13 13.98 -13 15 C-13.66 15 -14.32 15 -15 15 C-12.50750778 7.73023102 -8.56264205 4.44837616 -2.0234375 0.8203125 C-1.35570312 0.54960937 -0.68796875 0.27890625 0 0 Z " fill="#C2B4AC" transform="translate(327,193)"/>
<path d="M0 0 C0.33 0.66 0.66 1.32 1 2 C0.360625 2.763125 -0.27875 3.52625 -0.9375 4.3125 C-3.14232781 6.88246713 -3.14232781 6.88246713 -4 10 C-4.66 10 -5.32 10 -6 10 C-6.33 15.61 -6.66 21.22 -7 27 C-7.33 27 -7.66 27 -8 27 C-9.19520184 19.47022839 -9.65500901 13.01921872 -5.3046875 6.43359375 C-3.59768802 4.22555192 -1.84833422 2.09049565 0 0 Z " fill="#A99E96" transform="translate(99,447)"/>
<path d="M0 0 C0.33 0 0.66 0 1 0 C2.5912689 4.873261 3.21192221 8.80790596 3 14 C2.34 14 1.68 14 1 14 C1 14.66 1 15.32 1 16 C-3.29 16 -7.58 16 -12 16 C-12 15.67 -12 15.34 -12 15 C-8.04 14.34 -4.08 13.68 0 13 C0 8.71 0 4.42 0 0 Z " fill="#A69B94" transform="translate(175,417)"/>
<path d="M0 0 C-7.45141157 3.49760135 -14.91370736 3.69465822 -23 4 C-20.19039258 2.12692839 -19.01910612 1.6459233 -15.83984375 1.11328125 C-15.04642578 0.97986328 -14.25300781 0.84644531 -13.43554688 0.70898438 C-12.61119141 0.57814453 -11.78683594 0.44730469 -10.9375 0.3125 C-9.69516602 0.09883789 -9.69516602 0.09883789 -8.42773438 -0.11914062 C-2.25677307 -1.12838653 -2.25677307 -1.12838653 0 0 Z " fill="#A59A92" transform="translate(1013,201)"/>
<path d="M0 0 C0.33 0 0.66 0 1 0 C1.33 1.98 1.66 3.96 2 6 C2.66 5.67 3.32 5.34 4 5 C4 6.65 4 8.3 4 10 C2.68 10.33 1.36 10.66 0 11 C0 7.37 0 3.74 0 0 Z " fill="#A1968F" transform="translate(655,306)"/>
<path d="M0 0 C-1.38188453 3.21043882 -2.92421903 5.04936365 -5.625 7.25 C-6.57246094 8.03117188 -6.57246094 8.03117188 -7.5390625 8.828125 C-8.02117188 9.21484375 -8.50328125 9.6015625 -9 10 C-7.6834994 5.81113445 -4.97532335 0 0 0 Z " fill="#C6B9B0" transform="translate(759,184)"/>
<path d="M0 0 C0.66 0.66 1.32 1.32 2 2 C1.6875 4.1875 1.6875 4.1875 1 7 C0.65596692 9.33177975 0.32050798 11.66487041 0 14 C-0.33 14 -0.66 14 -1 14 C-1.18451025 4.58997722 -1.18451025 4.58997722 0 0 Z " fill="#A99D96" transform="translate(869,425)"/>
<path d="M0 0 C0.33 0 0.66 0 1 0 C2.5912689 4.873261 3.21192221 8.80790596 3 14 C0.37625198 8.75250397 -0.09534716 5.91152367 0 0 Z " fill="#B7ABA2" transform="translate(175,417)"/>
<path d="M0 0 C1.32 0 2.64 0 4 0 C4 0.66 4 1.32 4 2 C2.68 1.67 1.36 1.34 0 1 C0 0.67 0 0.34 0 0 Z " fill="#000000" transform="translate(768,548)"/>
<path d="" fill="#000000" transform="translate(0,0)"/>
</svg>
